_Griffith_Gothic-Black_WebTT.ufo
<glyph name="quotedbl" format="1">
  <advance width="1853.882368"/>
  <unicode hex="0022"/>
  <outline>
    <contour>
      <point x="324" y="1845" type="line"/>
      <point x="160" y="3021" type="line"/>
      <point x="817" y="3021" type="line"/>
      <point x="653" y="1845" type="line"/>
    </contour>
    <contour>
      <point x="1200" y="1845" type="line"/>
      <point x="1036" y="3021" type="line"/>
      <point x="1694" y="3021" type="line"/>
      <point x="1532" y="1845" type="line"/>
    </contour>
  </outline>
</glyph>
<glyph name="quotesingle" format="1">
  <advance width="989.855744"/>
  <unicode hex="0027"/>
  <outline>
    <contour>
      <point x="324" y="1845" type="line"/>
      <point x="160" y="3021" type="line"/>
      <point x="831" y="3021" type="line"/>
      <point x="668" y="1845" type="line"/>
    </contour>
  </outline>
</glyph>
<glyph name="asterisk" format="1">
  <advance width="1845.49376"/>
  <unicode hex="002A"/>
  <outline>
    <contour>
      <point x="1028" y="2398" type="line"/>
      <point x="1573" y="2765" type="line"/>
      <point x="1741" y="2253" type="line"/>
      <point x="1104" y="2214" type="line"/>
      <point x="1610" y="1808" type="line"/>
      <point x="1174" y="1489" type="line"/>
      <point x="924" y="2105" type="line"/>
      <point x="676" y="1489" type="line"/>
      <point x="240" y="1808" type="line"/>
      <point x="748" y="2214" type="line"/>
      <point x="104" y="2253" type="line"/>
      <point x="276" y="2765" type="line"/>
      <point x="817" y="2398" type="line"/>
      <point x="649" y="3021" type="line"/>
      <point x="1196" y="3021" type="line"/>
    </contour>
  </outline>
</glyph>
<glyph name="plus" format="1">
  <advance width="2516.5824"/>
  <unicode hex="002B"/>
  <outline>
    <contour>
      <point x="1526" y="1753" type="line"/>
      <point x="2357" y="1753" type="line"/>
      <point x="2357" y="1225" type="line"/>
      <point x="1526" y="1225" type="line"/>
      <point x="1526" y="389" type="line"/>
      <point x="989" y="389" type="line"/>
      <point x="989" y="1225" type="line"/>
      <point x="160" y="1225" type="line"/>
      <point x="160" y="1753" type="line"/>
      <point x="989" y="1753" type="line"/>
      <point x="989" y="2589" type="line"/>
      <point x="1526" y="2589" type="line"/>
    </contour>
  </outline>
</glyph>
<glyph name="hyphen" format="1">
  <advance width="1459.617792"/>
  <unicode hex="002D"/>
  <unicode hex="2010"/>
  <unicode hex="2011"/>
  <outline>
    <contour>
      <point x="160" y="1481" type="line"/>
      <point x="1300" y="1481" type="line"/>
      <point x="1300" y="936" type="line"/>
      <point x="160" y="936" type="line"/>
    </contour>
  </outline>
</glyph>
<glyph name="period" format="1">
  <advance width="990"/>
  <unicode hex="002E"/>
  <outline>
    <contour>
      <point x="129" y="336" type="qcurve" smooth="yes"/>
      <point x="129" y="489"/>
      <point x="338" y="696"/>
      <point x="496" y="696" type="qcurve" smooth="yes"/>
      <point x="652" y="696"/>
      <point x="860" y="489"/>
      <point x="860" y="336" type="qcurve" smooth="yes"/>
      <point x="860" y="178"/>
      <point x="652" y="-29"/>
      <point x="496" y="-29" type="qcurve" smooth="yes"/>
      <point x="338" y="-29"/>
      <point x="129" y="178"/>
    </contour>
  </outline>
</glyph>
<glyph name="slash" format="1">
  <advance width="1837.105152"/>
  <unicode hex="002F"/>
  <outline>
    <contour>
      <point x="-80" y="-399" type="line"/>
      <point x="1196" y="3082" type="line"/>
      <point x="1796" y="3082" type="line"/>
      <point x="516" y="-399" type="line"/>
    </contour>
  </outline>
</glyph>
<glyph name="four" format="1">
  <advance width="2587.885568"/>
  <unicode hex="0034"/>
  <outline>
    <contour>
      <point x="2101" y="1112" type="line"/>
      <point x="2501" y="1112" type="line"/>
      <point x="2501" y="741" type="line"/>
      <point x="2101" y="741" type="line"/>
      <point x="2101" y="0" type="line"/>
      <point x="1464" y="0" type="line"/>
      <point x="1464" y="741" type="line"/>
      <point x="109" y="741" type="line"/>
      <point x="109" y="1208" type="line"/>
      <point x="1300" y="3021" type="line"/>
      <point x="2101" y="3021" type="line"/>
    </contour>
    <contour>
      <point x="537" y="1149" type="line"/>
      <point x="537" y="1112" type="line"/>
      <point x="1464" y="1112" type="line"/>
      <point x="1464" y="2501" type="line"/>
      <point x="1425" y="2501" type="line"/>
    </contour>
  </outline>
</glyph>
<glyph name="five" format="1">
  <advance width="2391"/>
  <unicode hex="0035"/>
  <outline>
    <contour>
      <point x="1401" y="1993" type="qcurve" smooth="yes"/>
      <point x="1786" y="1993"/>
      <point x="2261" y="1531"/>
      <point x="2261" y="1090" type="qcurve" smooth="yes"/>
      <point x="2261" y="1036" type="line" smooth="yes"/>
      <point x="2261" y="481"/>
      <point x="1577" y="-41"/>
      <point x="1049" y="-41" type="qcurve" smooth="yes"/>
      <point x="758" y="-41"/>
      <point x="332" y="51"/>
      <point x="84" y="164" type="qcurve"/>
      <point x="256" y="641" type="line"/>
      <point x="481" y="542"/>
      <point x="832" y="461"/>
      <point x="1020" y="461" type="qcurve" smooth="yes"/>
      <point x="1289" y="461"/>
      <point x="1593" y="756"/>
      <point x="1593" y="1028" type="qcurve" smooth="yes"/>
      <point x="1593" y="1049" type="line" smooth="yes"/>
      <point x="1593" y="1284"/>
      <point x="1374" y="1526"/>
      <point x="1169" y="1526" type="qcurve" smooth="yes"/>
      <point x="1032" y="1526"/>
      <point x="815" y="1422"/>
      <point x="705" y="1321" type="qcurve"/>
      <point x="244" y="1321" type="line"/>
      <point x="377" y="3021" type="line"/>
      <point x="2097" y="3021" type="line"/>
      <point x="2097" y="2501" type="line"/>
      <point x="793" y="2501" type="line"/>
      <point x="725" y="1745" type="line"/>
      <point x="756" y="1745" type="line"/>
      <point x="887" y="1864"/>
      <point x="1169" y="1993"/>
    </contour>
  </outline>
</glyph>
<glyph name="colon" format="1">
  <advance width="1044"/>
  <unicode hex="003A"/>
  <outline>
    <contour>
      <point x="160" y="336" type="qcurve" smooth="yes"/>
      <point x="160" y="489"/>
      <point x="368" y="696"/>
      <point x="524" y="696" type="qcurve" smooth="yes"/>
      <point x="677" y="696"/>
      <point x="885" y="489"/>
      <point x="885" y="336" type="qcurve" smooth="yes"/>
      <point x="885" y="178"/>
      <point x="677" y="-29"/>
      <point x="524" y="-29" type="qcurve" smooth="yes"/>
      <point x="368" y="-29"/>
      <point x="160" y="178"/>
    </contour>
    <contour>
      <point x="160" y="1896" type="qcurve" smooth="yes"/>
      <point x="160" y="2049"/>
      <point x="368" y="2257"/>
      <point x="524" y="2257" type="qcurve" smooth="yes"/>
      <point x="677" y="2257"/>
      <point x="885" y="2049"/>
      <point x="885" y="1896" type="qcurve" smooth="yes"/>
      <point x="885" y="1739"/>
      <point x="677" y="1532"/>
      <point x="524" y="1532" type="qcurve" smooth="yes"/>
      <point x="368" y="1532"/>
      <point x="160" y="1739"/>
    </contour>
  </outline>
</glyph>
<glyph name="less" format="1">
  <advance width="2516.5824"/>
  <unicode hex="003C"/>
  <outline>
    <contour>
      <point x="776" y="1489" type="line"/>
      <point x="2320" y="872" type="line"/>
      <point x="2320" y="315" type="line"/>
      <point x="172" y="1237" type="line"/>
      <point x="172" y="1741" type="line"/>
      <point x="2320" y="2662" type="line"/>
      <point x="2320" y="2105" type="line"/>
    </contour>
  </outline>
</glyph>
<glyph name="at" format="1">
  <advance width="4110"/>
  <unicode hex="0040"/>
  <outline>
    <contour>
      <point x="193" y="1112" type="qcurve" smooth="yes"/>
      <point x="193" y="1937"/>
      <point x="1343" y="3070"/>
      <point x="2138" y="3070" type="qcurve" smooth="yes"/>
      <point x="2887" y="3070"/>
      <point x="3918" y="2152"/>
      <point x="3918" y="1397" type="qcurve" smooth="yes"/>
      <point x="3918" y="799"/>
      <point x="3298" y="104"/>
      <point x="2886" y="104" type="qcurve" smooth="yes"/>
      <point x="2617" y="104"/>
      <point x="2333" y="379"/>
      <point x="2298" y="592" type="qcurve"/>
      <point x="2281" y="592" type="line"/>
      <point x="2147" y="366"/>
      <point x="1786" y="104"/>
      <point x="1589" y="104" type="qcurve" smooth="yes"/>
      <point x="1342" y="104"/>
      <point x="1069" y="468"/>
      <point x="1069" y="797" type="qcurve" smooth="yes"/>
      <point x="1069" y="1260"/>
      <point x="1485" y="2177"/>
      <point x="1866" y="2177" type="qcurve" smooth="yes"/>
      <point x="2086" y="2177"/>
      <point x="2322" y="1931"/>
      <point x="2394" y="1737" type="qcurve"/>
      <point x="2413" y="1737" type="line"/>
      <point x="2486" y="2177" type="line"/>
      <point x="3045" y="2089" type="line"/>
      <point x="2806" y="756" type="line" smooth="yes"/>
      <point x="2772" y="565"/>
      <point x="2901" y="319"/>
      <point x="3066" y="319" type="qcurve" smooth="yes"/>
      <point x="3326" y="319"/>
      <point x="3729" y="932"/>
      <point x="3729" y="1389" type="qcurve" smooth="yes"/>
      <point x="3729" y="2087"/>
      <point x="2830" y="2910"/>
      <point x="2126" y="2910" type="qcurve" smooth="yes"/>
      <point x="1394" y="2910"/>
      <point x="381" y="1860"/>
      <point x="381" y="1116" type="qcurve" smooth="yes"/>
      <point x="381" y="331"/>
      <point x="1322" y="-645"/>
      <point x="2089" y="-645" type="qcurve" smooth="yes"/>
      <point x="2468" y="-645"/>
      <point x="3044" y="-497"/>
      <point x="3322" y="-344" type="qcurve"/>
      <point x="3402" y="-477" type="line"/>
      <point x="3110" y="-635"/>
      <point x="2487" y="-805"/>
      <point x="2081" y="-805" type="qcurve" smooth="yes"/>
      <point x="1236" y="-805"/>
      <point x="193" y="252"/>
    </contour>
    <contour>
      <point x="1640" y="813" type="qcurve" smooth="yes"/>
      <point x="1640" y="645"/>
      <point x="1759" y="449"/>
      <point x="1874" y="449" type="qcurve" smooth="yes"/>
      <point x="2053" y="449"/>
      <point x="2337" y="1051"/>
      <point x="2337" y="1401" type="qcurve" smooth="yes"/>
      <point x="2337" y="1564"/>
      <point x="2203" y="1790"/>
      <point x="2081" y="1790" type="qcurve" smooth="yes"/>
      <point x="1899" y="1790"/>
      <point x="1640" y="1201"/>
    </contour>
  </outline>
</glyph>
<glyph name="A" format="1">
  <advance width="2881.486848"/>
  <unicode hex="0041"/>
  <outline>
    <contour>
      <point x="1008" y="3033" type="line"/>
      <point x="1874" y="3033" type="line"/>
      <point x="2814" y="0" type="line"/>
      <point x="2130" y="0" type="line"/>
      <point x="1942" y="684" type="line"/>
      <point x="920" y="684" type="line"/>
      <point x="729" y="0" type="line"/>
      <point x="68" y="0" type="line"/>
    </contour>
    <contour>
      <point x="1417" y="2542" type="line"/>
      <point x="1020" y="1116" type="line"/>
      <point x="1841" y="1116" type="line"/>
      <point x="1444" y="2542" type="line"/>
    </contour>
  </outline>
</glyph>
<glyph name="C" format="1">
  <advance width="2554"/>
  <unicode hex="0043"/>
  <outline>
    <contour>
      <point x="1350" y="457" type="qcurve" smooth="yes"/>
      <point x="1557" y="457"/>
      <point x="1781" y="768"/>
      <point x="1837" y="1085" type="qcurve"/>
      <point x="2454" y="940" type="line"/>
      <point x="2366" y="471"/>
      <point x="1818" y="-51"/>
      <point x="1341" y="-51" type="qcurve" smooth="yes"/>
      <point x="813" y="-51"/>
      <point x="164" y="704"/>
      <point x="164" y="1409" type="qcurve" smooth="yes"/>
      <point x="164" y="1610" type="line" smooth="yes"/>
      <point x="164" y="2311"/>
      <point x="810" y="3070"/>
      <point x="1341" y="3070" type="qcurve" smooth="yes"/>
      <point x="1858" y="3070"/>
      <point x="2366" y="2518"/>
      <point x="2441" y="2093" type="qcurve"/>
      <point x="1800" y="1942" type="line"/>
      <point x="1750" y="2261"/>
      <point x="1539" y="2562"/>
      <point x="1341" y="2562" type="qcurve" smooth="yes"/>
      <point x="1085" y="2562"/>
      <point x="856" y="2082"/>
      <point x="856" y="1694" type="qcurve" smooth="yes"/>
      <point x="856" y="1329" type="line" smooth="yes"/>
      <point x="856" y="941"/>
      <point x="1090" y="457"/>
    </contour>
  </outline>
</glyph>
<glyph name="D" format="1">
  <advance width="2680"/>
  <unicode hex="0044"/>
  <outline>
    <contour>
      <point x="1257" y="3021" type="line" smooth="yes"/>
      <point x="1840" y="3021"/>
      <point x="2525" y="2285"/>
      <point x="2525" y="1589" type="qcurve" smooth="yes"/>
      <point x="2525" y="1434" type="line" smooth="yes"/>
      <point x="2525" y="737"/>
      <point x="1832" y="0"/>
      <point x="1249" y="0" type="qcurve" smooth="yes"/>
      <point x="244" y="0" type="line"/>
      <point x="244" y="3021" type="line"/>
    </contour>
    <contour>
      <point x="901" y="508" type="line"/>
      <point x="1237" y="508" type="line" smooth="yes"/>
      <point x="1526" y="508"/>
      <point x="1833" y="940"/>
      <point x="1833" y="1372" type="qcurve" smooth="yes"/>
      <point x="1833" y="1645" type="line" smooth="yes"/>
      <point x="1833" y="2079"/>
      <point x="1530" y="2513"/>
      <point x="1229" y="2513" type="qcurve" smooth="yes"/>
      <point x="901" y="2513" type="line"/>
    </contour>
  </outline>
</glyph>
<glyph name="O" format="1">
  <advance width="2710"/>
  <unicode hex="004F"/>
  <outline>
    <contour>
      <point x="1356" y="3070" type="qcurve" smooth="yes"/>
      <point x="1894" y="3070"/>
      <point x="2546" y="2314"/>
      <point x="2546" y="1610" type="qcurve" smooth="yes"/>
      <point x="2546" y="1409" type="line" smooth="yes"/>
      <point x="2546" y="708"/>
      <point x="1894" y="-51"/>
      <point x="1356" y="-51" type="qcurve" smooth="yes"/>
      <point x="813" y="-51"/>
      <point x="164" y="704"/>
      <point x="164" y="1409" type="qcurve" smooth="yes"/>
      <point x="164" y="1610" type="line" smooth="yes"/>
      <point x="164" y="2311"/>
      <point x="813" y="3070"/>
    </contour>
    <contour>
      <point x="856" y="1329" type="line" smooth="yes"/>
      <point x="856" y="920"/>
      <point x="1102" y="457"/>
      <point x="1356" y="457" type="qcurve" smooth="yes"/>
      <point x="1608" y="457"/>
      <point x="1853" y="915"/>
      <point x="1853" y="1325" type="qcurve" smooth="yes"/>
      <point x="1853" y="1690" type="line" smooth="yes"/>
      <point x="1853" y="2101"/>
      <point x="1608" y="2562"/>
      <point x="1356" y="2562" type="qcurve" smooth="yes"/>
      <point x="1102" y="2562"/>
      <point x="856" y="2102"/>
      <point x="856" y="1694" type="qcurve" smooth="yes"/>
    </contour>
  </outline>
</glyph>
<glyph name="S" format="1">
  <advance width="2512"/>
  <unicode hex="0053"/>
  <outline>
    <contour>
      <point x="793" y="2261" type="qcurve" smooth="yes"/>
      <point x="793" y="2117"/>
      <point x="1035" y="1919"/>
      <point x="1417" y="1817" type="qcurve" smooth="yes"/>
      <point x="1972" y="1665"/>
      <point x="2378" y="1217"/>
      <point x="2378" y="864" type="qcurve" smooth="yes"/>
      <point x="2378" y="413"/>
      <point x="1772" y="-41"/>
      <point x="1272" y="-41" type="qcurve" smooth="yes"/>
      <point x="848" y="-41"/>
      <point x="286" y="243"/>
      <point x="92" y="524" type="qcurve"/>
      <point x="512" y="905" type="line"/>
      <point x="656" y="684"/>
      <point x="1053" y="453"/>
      <point x="1288" y="453" type="qcurve" smooth="yes"/>
      <point x="1519" y="453"/>
      <point x="1769" y="631"/>
      <point x="1769" y="793" type="qcurve" smooth="yes"/>
      <point x="1769" y="945"/>
      <point x="1517" y="1143"/>
      <point x="1128" y="1245" type="qcurve" smooth="yes"/>
      <point x="597" y="1389"/>
      <point x="184" y="1818"/>
      <point x="184" y="2185" type="qcurve" smooth="yes"/>
      <point x="184" y="2583"/>
      <point x="742" y="3062"/>
      <point x="1221" y="3062" type="qcurve" smooth="yes"/>
      <point x="1594" y="3062"/>
      <point x="2091" y="2823"/>
      <point x="2273" y="2580" type="qcurve"/>
      <point x="1853" y="2198" type="line"/>
      <point x="1719" y="2376"/>
      <point x="1404" y="2566"/>
      <point x="1204" y="2566" type="qcurve" smooth="yes"/>
      <point x="998" y="2566"/>
      <point x="793" y="2389"/>
    </contour>
  </outline>
</glyph>
<glyph name="T" format="1">
  <advance width="2478.833664"/>
  <unicode hex="0054"/>
  <outline>
    <contour>
      <point x="80" y="3021" type="line"/>
      <point x="2398" y="3021" type="line"/>
      <point x="2398" y="2462" type="line"/>
      <point x="1577" y="2462" type="line"/>
      <point x="1577" y="0" type="line"/>
      <point x="905" y="0" type="line"/>
      <point x="905" y="2462" type="line"/>
      <point x="80" y="2462" type="line"/>
    </contour>
  </outline>
</glyph>
<glyph name="U" format="1">
  <advance width="2655"/>
  <unicode hex="0055"/>
  <outline>
    <contour>
      <point x="1800" y="3021" type="line"/>
      <point x="2437" y="3021" type="line"/>
      <point x="2437" y="1108" type="line" smooth="yes"/>
      <point x="2437" y="500"/>
      <point x="1823" y="-51"/>
      <point x="1325" y="-51" type="qcurve" smooth="yes"/>
      <point x="824" y="-51"/>
      <point x="217" y="500"/>
      <point x="217" y="1108" type="qcurve" smooth="yes"/>
      <point x="217" y="3021" type="line"/>
      <point x="889" y="3021" type="line"/>
      <point x="889" y="1090" type="line" smooth="yes"/>
      <point x="889" y="764"/>
      <point x="1133" y="477"/>
      <point x="1346" y="477" type="qcurve" smooth="yes"/>
      <point x="1560" y="477"/>
      <point x="1800" y="759"/>
      <point x="1800" y="1081" type="qcurve" smooth="yes"/>
    </contour>
  </outline>
</glyph>
<glyph name="V" format="1">
  <advance width="2772.434944"/>
  <unicode hex="0056"/>
  <outline>
    <contour>
      <point x="1405" y="700" type="line"/>
      <point x="2030" y="3021" type="line"/>
      <point x="2710" y="3021" type="line"/>
      <point x="1757" y="-20" type="line"/>
      <point x="1016" y="-20" type="line"/>
      <point x="68" y="3021" type="line"/>
      <point x="764" y="3021" type="line"/>
      <point x="1389" y="700" type="line"/>
    </contour>
  </outline>
</glyph>
<glyph name="X" format="1">
  <advance width="2726.2976"/>
  <unicode hex="0058"/>
  <outline>
    <contour>
      <point x="2605" y="3021" type="line"/>
      <point x="1716" y="1593" type="line"/>
      <point x="2662" y="0" type="line"/>
      <point x="1913" y="0" type="line"/>
      <point x="1329" y="1012" type="line"/>
      <point x="725" y="0" type="line"/>
      <point x="63" y="0" type="line"/>
      <point x="1012" y="1513" type="line"/>
      <point x="117" y="3021" type="line"/>
      <point x="868" y="3021" type="line"/>
      <point x="1397" y="2097" type="line"/>
      <point x="1946" y="3021" type="line"/>
    </contour>
  </outline>
</glyph>
<glyph name="backslash" format="1">
  <advance width="1837.105152"/>
  <unicode hex="005C"/>
  <outline>
    <contour>
      <point x="47" y="3082" type="line"/>
      <point x="645" y="3082" type="line"/>
      <point x="1917" y="-399" type="line"/>
      <point x="1317" y="-399" type="line"/>
    </contour>
  </outline>
</glyph>
<glyph name="a" format="1">
  <advance width="2198"/>
  <unicode hex="0061"/>
  <outline>
    <contour>
      <point x="1933" y="453" type="line" smooth="yes"/>
      <point x="1933" y="330"/>
      <point x="2022" y="226"/>
      <point x="2144" y="209" type="qcurve"/>
      <point x="2144" y="-20" type="line"/>
      <point x="1793" y="-20"/>
      <point x="1421" y="157"/>
      <point x="1372" y="311" type="qcurve"/>
      <point x="1350" y="311" type="line"/>
      <point x="1194" y="142"/>
      <point x="880" y="-25"/>
      <point x="692" y="-25" type="qcurve" smooth="yes"/>
      <point x="448" y="-25"/>
      <point x="92" y="281"/>
      <point x="92" y="565" type="qcurve" smooth="yes"/>
      <point x="92" y="905"/>
      <point x="709" y="1297"/>
      <point x="1350" y="1321" type="qcurve"/>
      <point x="1350" y="1522" type="line" smooth="yes"/>
      <point x="1350" y="1673"/>
      <point x="1196" y="1829"/>
      <point x="1053" y="1829" type="qcurve" smooth="yes"/>
      <point x="918" y="1829"/>
      <point x="605" y="1732"/>
      <point x="395" y="1620" type="qcurve"/>
      <point x="227" y="1993" type="line"/>
      <point x="458" y="2115"/>
      <point x="901" y="2257"/>
      <point x="1161" y="2257" type="qcurve" smooth="yes"/>
      <point x="1565" y="2257"/>
      <point x="1933" y="1917"/>
      <point x="1933" y="1536" type="qcurve" smooth="yes"/>
    </contour>
    <contour>
      <point x="668" y="641" type="qcurve" smooth="yes"/>
      <point x="668" y="500"/>
      <point x="831" y="344"/>
      <point x="969" y="344" type="qcurve" smooth="yes"/>
      <point x="1076" y="344"/>
      <point x="1263" y="430"/>
      <point x="1350" y="520" type="qcurve"/>
      <point x="1350" y="1085" type="line"/>
      <point x="969" y="1064"/>
      <point x="668" y="817"/>
    </contour>
  </outline>
</glyph>
<glyph name="s" format="1">
  <advance width="1896"/>
  <unicode hex="0073"/>
  <outline>
    <contour>
      <point x="680" y="1677" type="qcurve" smooth="yes"/>
      <point x="680" y="1584"/>
      <point x="852" y="1448"/>
      <point x="1100" y="1376" type="qcurve" smooth="yes"/>
      <point x="1494" y="1263"/>
      <point x="1825" y="920"/>
      <point x="1825" y="649" type="qcurve" smooth="yes"/>
      <point x="1825" y="305"/>
      <point x="1339" y="-37"/>
      <point x="956" y="-37" type="qcurve" smooth="yes"/>
      <point x="643" y="-37"/>
      <point x="202" y="161"/>
      <point x="55" y="315" type="qcurve"/>
      <point x="360" y="633" type="line"/>
      <point x="483" y="492"/>
      <point x="810" y="348"/>
      <point x="969" y="348" type="qcurve" smooth="yes"/>
      <point x="1109" y="348"/>
      <point x="1288" y="463"/>
      <point x="1288" y="565" type="qcurve" smooth="yes"/>
      <point x="1288" y="669"/>
      <point x="1116" y="807"/>
      <point x="844" y="885" type="qcurve" smooth="yes"/>
      <point x="462" y="998"/>
      <point x="139" y="1345"/>
      <point x="139" y="1602" type="qcurve" smooth="yes"/>
      <point x="139" y="1915"/>
      <point x="603" y="2273"/>
      <point x="956" y="2273" type="qcurve" smooth="yes"/>
      <point x="1222" y="2273"/>
      <point x="1605" y="2113"/>
      <point x="1749" y="1962" type="qcurve"/>
      <point x="1444" y="1640" type="line"/>
      <point x="1315" y="1772"/>
      <point x="1081" y="1888"/>
      <point x="940" y="1888" type="qcurve" smooth="yes"/>
      <point x="812" y="1888"/>
      <point x="680" y="1761"/>
    </contour>
  </outline>
</glyph>
<glyph name="t" format="1">
  <advance width="1762"/>
  <unicode hex="0074"/>
  <outline>
    <contour>
      <point x="1257" y="444" type="qcurve" smooth="yes"/>
      <point x="1343" y="444"/>
      <point x="1542" y="508"/>
      <point x="1686" y="580" type="qcurve"/>
      <point x="1686" y="113" type="line"/>
      <point x="1523" y="35"/>
      <point x="1211" y="-41"/>
      <point x="1032" y="-41" type="qcurve" smooth="yes"/>
      <point x="737" y="-41"/>
      <point x="436" y="232"/>
      <point x="436" y="516" type="qcurve" smooth="yes"/>
      <point x="436" y="1796" type="line"/>
      <point x="51" y="1796" type="line"/>
      <point x="51" y="2218" type="line"/>
      <point x="436" y="2218" type="line"/>
      <point x="436" y="2918" type="line"/>
      <point x="1061" y="3058" type="line"/>
      <point x="1061" y="2218" type="line"/>
      <point x="1620" y="2218" type="line"/>
      <point x="1620" y="1796" type="line"/>
      <point x="1061" y="1796" type="line"/>
      <point x="1061" y="659" type="line" smooth="yes"/>
      <point x="1061" y="556"/>
      <point x="1167" y="444"/>
    </contour>
  </outline>
</glyph>
<glyph name="u" format="1">
  <advance width="2269"/>
  <unicode hex="0075"/>
  <outline>
    <contour>
      <point x="1425" y="2232" type="line"/>
      <point x="2056" y="2232" type="line"/>
      <point x="2056" y="63" type="line"/>
      <point x="1425" y="-33" type="line"/>
      <point x="1425" y="457" type="line"/>
      <point x="1405" y="457" type="line"/>
      <point x="1220" y="217"/>
      <point x="878" y="-25"/>
      <point x="672" y="-25" type="qcurve" smooth="yes"/>
      <point x="439" y="-25"/>
      <point x="188" y="264"/>
      <point x="188" y="545" type="qcurve" smooth="yes"/>
      <point x="188" y="2232" type="line"/>
      <point x="821" y="2232" type="line"/>
      <point x="821" y="688" type="line" smooth="yes"/>
      <point x="821" y="554"/>
      <point x="932" y="416"/>
      <point x="1049" y="416" type="qcurve" smooth="yes"/>
      <point x="1139" y="416"/>
      <point x="1332" y="539"/>
      <point x="1425" y="653" type="qcurve"/>
    </contour>
  </outline>
</glyph>
<glyph name="y" format="1">
  <advance width="2240"/>
  <unicode hex="0079"/>
  <outline>
    <contour>
      <point x="1137" y="596" type="line"/>
      <point x="1569" y="2232" type="line"/>
      <point x="2185" y="2232" type="line"/>
      <point x="1405" y="-205" type="line" smooth="yes"/>
      <point x="1295" y="-550"/>
      <point x="933" y="-805"/>
      <point x="616" y="-805" type="qcurve" smooth="yes"/>
      <point x="454" y="-805"/>
      <point x="227" y="-758"/>
      <point x="117" y="-717" type="qcurve"/>
      <point x="117" y="-307" type="line"/>
      <point x="244" y="-307" type="line"/>
      <point x="297" y="-391"/>
      <point x="417" y="-473"/>
      <point x="524" y="-473" type="qcurve" smooth="yes"/>
      <point x="631" y="-473"/>
      <point x="772" y="-373"/>
      <point x="809" y="-272" type="qcurve" smooth="yes"/>
      <point x="852" y="-164" type="line"/>
      <point x="55" y="2232" type="line"/>
      <point x="705" y="2232" type="line"/>
    </contour>
  </outline>
</glyph>
<glyph name="braceleft" format="1">
  <advance width="1854"/>
  <unicode hex="007B"/>
  <outline>
    <contour>
      <point x="1434" y="-80" type="qcurve" smooth="yes"/>
      <point x="1749" y="-80" type="line"/>
      <point x="1749" y="-336" type="line"/>
      <point x="1153" y="-336" type="line" smooth="yes"/>
      <point x="846" y="-336"/>
      <point x="528" y="-67"/>
      <point x="528" y="193" type="qcurve" smooth="yes"/>
      <point x="528" y="327"/>
      <point x="612" y="671"/>
      <point x="612" y="809" type="qcurve" smooth="yes"/>
      <point x="612" y="1032"/>
      <point x="297" y="1217"/>
      <point x="63" y="1217" type="qcurve"/>
      <point x="63" y="1468" type="line"/>
      <point x="297" y="1468"/>
      <point x="612" y="1652"/>
      <point x="612" y="1874" type="qcurve" smooth="yes"/>
      <point x="612" y="2013"/>
      <point x="528" y="2356"/>
      <point x="528" y="2492" type="qcurve" smooth="yes"/>
      <point x="528" y="2751"/>
      <point x="846" y="3021"/>
      <point x="1153" y="3021" type="qcurve" smooth="yes"/>
      <point x="1749" y="3021" type="line"/>
      <point x="1749" y="2765" type="line"/>
      <point x="1434" y="2765" type="line" smooth="yes"/>
      <point x="1275" y="2765"/>
      <point x="1116" y="2604"/>
      <point x="1116" y="2470" type="qcurve" smooth="yes"/>
      <point x="1116" y="2361"/>
      <point x="1200" y="2028"/>
      <point x="1200" y="1874" type="qcurve" smooth="yes"/>
      <point x="1200" y="1634"/>
      <point x="934" y="1418"/>
      <point x="760" y="1360" type="qcurve"/>
      <point x="760" y="1325" type="line"/>
      <point x="934" y="1265"/>
      <point x="1200" y="1050"/>
      <point x="1200" y="809" type="qcurve" smooth="yes"/>
      <point x="1200" y="656"/>
      <point x="1116" y="323"/>
      <point x="1116" y="213" type="qcurve" smooth="yes"/>
      <point x="1116" y="78"/>
      <point x="1275" y="-80"/>
    </contour>
  </outline>
</glyph>
<glyph name="asciitilde" format="1">
  <advance width="1724"/>
  <unicode hex="007E"/>
  <outline>
    <contour>
      <point x="1141" y="1309" type="qcurve" smooth="yes"/>
      <point x="1216" y="1309"/>
      <point x="1285" y="1406"/>
      <point x="1288" y="1518" type="qcurve"/>
      <point x="1581" y="1518" type="line"/>
      <point x="1596" y="1195"/>
      <point x="1404" y="893"/>
      <point x="1192" y="893" type="qcurve" smooth="yes"/>
      <point x="992" y="893"/>
      <point x="695" y="1116"/>
      <point x="584" y="1116" type="qcurve" smooth="yes"/>
      <point x="509" y="1116"/>
      <point x="439" y="1014"/>
      <point x="436" y="901" type="qcurve"/>
      <point x="143" y="901" type="line"/>
      <point x="127" y="1224"/>
      <point x="320" y="1526"/>
      <point x="532" y="1526" type="qcurve" smooth="yes"/>
      <point x="733" y="1526"/>
      <point x="1028" y="1309"/>
    </contour>
  </outline>
</glyph>
<glyph name="exclamdown" format="1">
  <advance width="1179"/>
  <unicode hex="00A1"/>
  <outline>
    <contour>
      <point x="244" y="2701" type="qcurve" smooth="yes"/>
      <point x="244" y="2848"/>
      <point x="441" y="3049"/>
      <point x="592" y="3049" type="qcurve" smooth="yes"/>
      <point x="739" y="3049"/>
      <point x="940" y="2848"/>
      <point x="940" y="2701" type="qcurve" smooth="yes"/>
      <point x="940" y="2555"/>
      <point x="739" y="2353"/>
      <point x="592" y="2353" type="qcurve" smooth="yes"/>
      <point x="441" y="2353"/>
      <point x="244" y="2555"/>
    </contour>
    <contour>
      <point x="408" y="2034" type="line"/>
      <point x="776" y="2034" type="line"/>
      <point x="969" y="0" type="line"/>
      <point x="209" y="0" type="line"/>
    </contour>
  </outline>
</glyph>
<glyph name="dieresis" format="1">
  <advance width="2097.152"/>
  <unicode hex="00A8"/>
  <outline>
    <contour>
      <point x="377" y="3011" type="line"/>
      <point x="881" y="3011" type="line"/>
      <point x="881" y="2482" type="line"/>
      <point x="377" y="2482" type="line"/>
    </contour>
    <contour>
      <point x="1217" y="3011" type="line"/>
      <point x="1720" y="3011" type="line"/>
      <point x="1720" y="2482" type="line"/>
      <point x="1217" y="2482" type="line"/>
    </contour>
  </outline>
</glyph>
<glyph name="copyright" format="1">
  <advance width="3473"/>
  <unicode hex="00A9"/>
  <outline>
    <contour>
      <point x="1737" y="944" type="qcurve" smooth="yes"/>
      <point x="1853" y="944"/>
      <point x="1974" y="1117"/>
      <point x="2009" y="1305" type="qcurve"/>
      <point x="2394" y="1212" type="line"/>
      <point x="2345" y="928"/>
      <point x="2014" y="616"/>
      <point x="1733" y="616" type="qcurve" smooth="yes"/>
      <point x="1419" y="616"/>
      <point x="1032" y="1060"/>
      <point x="1032" y="1473" type="qcurve" smooth="yes"/>
      <point x="1032" y="1589" type="line" smooth="yes"/>
      <point x="1032" y="2003"/>
      <point x="1419" y="2441"/>
      <point x="1733" y="2441" type="qcurve" smooth="yes"/>
      <point x="2043" y="2441"/>
      <point x="2344" y="2114"/>
      <point x="2390" y="1858" type="qcurve"/>
      <point x="1989" y="1761" type="line"/>
      <point x="1957" y="1949"/>
      <point x="1843" y="2118"/>
      <point x="1733" y="2118" type="qcurve" smooth="yes"/>
      <point x="1592" y="2118"/>
      <point x="1468" y="1856"/>
      <point x="1468" y="1640" type="qcurve" smooth="yes"/>
      <point x="1468" y="1421" type="line" smooth="yes"/>
      <point x="1468" y="1209"/>
      <point x="1593" y="944"/>
    </contour>
    <contour>
      <point x="176" y="1505" type="qcurve" smooth="yes"/>
      <point x="176" y="2172"/>
      <point x="1074" y="3070"/>
      <point x="1741" y="3070" type="qcurve" smooth="yes"/>
      <point x="2404" y="3070"/>
      <point x="3297" y="2178"/>
      <point x="3297" y="1513" type="qcurve" smooth="yes"/>
      <point x="3297" y="847"/>
      <point x="2399" y="-51"/>
      <point x="1733" y="-51" type="qcurve" smooth="yes"/>
      <point x="1069" y="-51"/>
      <point x="176" y="842"/>
    </contour>
    <contour>
      <point x="360" y="1513" type="qcurve" smooth="yes"/>
      <point x="360" y="910"/>
      <point x="1137" y="109"/>
      <point x="1741" y="109" type="qcurve" smooth="yes"/>
      <point x="2341" y="109"/>
      <point x="3113" y="905"/>
      <point x="3113" y="1505" type="qcurve" smooth="yes"/>
      <point x="3113" y="2109"/>
      <point x="2336" y="2910"/>
      <point x="1733" y="2910" type="qcurve" smooth="yes"/>
      <point x="1132" y="2910"/>
      <point x="360" y="2116"/>
    </contour>
  </outline>
</glyph>
<glyph name="acute" format="1">
  <advance width="2097.152"/>
  <unicode hex="00B4"/>
  <outline>
    <contour>
      <point x="596" y="2482" type="line"/>
      <point x="924" y="3117" type="line"/>
      <point x="1636" y="3117" type="line"/>
      <point x="1008" y="2482" type="line"/>
    </contour>
  </outline>
</glyph>
<glyph name="paragraph" format="1">
  <advance width="2324"/>
  <unicode hex="00B6"/>
  <outline>
    <contour>
      <point x="1153" y="3021" type="qcurve" smooth="yes"/>
      <point x="2046" y="3021" type="line"/>
      <point x="2046" y="0" type="line"/>
      <point x="1774" y="0" type="line"/>
      <point x="1774" y="2769" type="line"/>
      <point x="1409" y="2769" type="line"/>
      <point x="1409" y="0" type="line"/>
      <point x="1141" y="0" type="line"/>
      <point x="1141" y="1300" type="line"/>
      <point x="639" y="1310"/>
      <point x="104" y="1768"/>
      <point x="104" y="2157" type="qcurve" smooth="yes"/>
      <point x="104" y="2572"/>
      <point x="672" y="3021"/>
    </contour>
  </outline>
</glyph>
<glyph name="periodcentered" format="1">
  <advance width="990"/>
  <unicode hex="00B7"/>
  <outline>
    <contour>
      <point x="129" y="1165" type="qcurve" smooth="yes"/>
      <point x="129" y="1323"/>
      <point x="338" y="1532"/>
      <point x="496" y="1532" type="qcurve" smooth="yes"/>
      <point x="652" y="1532"/>
      <point x="860" y="1323"/>
      <point x="860" y="1165" type="qcurve" smooth="yes"/>
      <point x="860" y="1009"/>
      <point x="652" y="801"/>
      <point x="496" y="801" type="qcurve" smooth="yes"/>
      <point x="338" y="801"/>
      <point x="129" y="1009"/>
    </contour>
  </outline>
</glyph>
<glyph name="cedilla" format="1">
  <advance width="2097"/>
  <unicode hex="00B8"/>
  <outline>
    <contour>
      <point x="1112" y="-193" type="line"/>
      <point x="1146" y="-183"/>
      <point x="1257" y="-172"/>
      <point x="1317" y="-172" type="qcurve" smooth="yes"/>
      <point x="1473" y="-172"/>
      <point x="1673" y="-289"/>
      <point x="1673" y="-412" type="qcurve" smooth="yes"/>
      <point x="1673" y="-615"/>
      <point x="1158" y="-810"/>
      <point x="575" y="-801" type="qcurve"/>
      <point x="575" y="-672" type="line"/>
      <point x="985" y="-672"/>
      <point x="1296" y="-571"/>
      <point x="1296" y="-487" type="qcurve" smooth="yes"/>
      <point x="1296" y="-443"/>
      <point x="1224" y="-395"/>
      <point x="1149" y="-395" type="qcurve" smooth="yes"/>
      <point x="1092" y="-395"/>
      <point x="978" y="-419"/>
      <point x="920" y="-440" type="qcurve"/>
      <point x="784" y="-356" type="line"/>
      <point x="1053" y="0" type="line"/>
      <point x="1253" y="0" type="line"/>
    </contour>
  </outline>
</glyph>
<glyph name="guillemotright" format="1">
  <advance width="2126.512128"/>
  <unicode hex="00BB"/>
  <outline>
    <contour>
      <point x="121" y="1937" type="line"/>
      <point x="461" y="1937" type="line"/>
      <point x="1141" y="1116" type="line"/>
      <point x="461" y="293" type="line"/>
      <point x="121" y="293" type="line"/>
      <point x="496" y="1116" type="line"/>
    </contour>
    <contour>
      <point x="1036" y="1937" type="line"/>
      <point x="1380" y="1937" type="line"/>
      <point x="2056" y="1116" type="line"/>
      <point x="1380" y="293" type="line"/>
      <point x="1036" y="293" type="line"/>
      <point x="1413" y="1116" type="line"/>
    </contour>
  </outline>
</glyph>
<glyph name="questiondown" format="1">
  <advance width="2085"/>
  <unicode hex="00BF"/>
  <outline>
    <contour>
      <point x="1061" y="436" type="qcurve" smooth="yes"/>
      <point x="1211" y="436"/>
      <point x="1439" y="637"/>
      <point x="1552" y="897" type="qcurve"/>
      <point x="2034" y="680" type="line"/>
      <point x="1893" y="328"/>
      <point x="1436" y="-51"/>
      <point x="1032" y="-51" type="qcurve" smooth="yes"/>
      <point x="600" y="-51"/>
      <point x="125" y="380"/>
      <point x="125" y="721" type="qcurve" smooth="yes"/>
      <point x="125" y="1001"/>
      <point x="356" y="1334"/>
      <point x="600" y="1505" type="qcurve" smooth="yes"/>
      <point x="779" y="1631"/>
      <point x="937" y="1852"/>
      <point x="952" y="2034" type="qcurve"/>
      <point x="1346" y="2034" type="line"/>
      <point x="1378" y="1720"/>
      <point x="1233" y="1396"/>
      <point x="1024" y="1221" type="qcurve" smooth="yes"/>
      <point x="886" y="1101"/>
      <point x="760" y="883"/>
      <point x="760" y="752" type="qcurve" smooth="yes"/>
      <point x="760" y="613"/>
      <point x="914" y="436"/>
    </contour>
    <contour>
      <point x="805" y="2701" type="qcurve" smooth="yes"/>
      <point x="805" y="2848"/>
      <point x="1006" y="3049"/>
      <point x="1153" y="3049" type="qcurve" smooth="yes"/>
      <point x="1300" y="3049"/>
      <point x="1501" y="2848"/>
      <point x="1501" y="2701" type="qcurve" smooth="yes"/>
      <point x="1501" y="2555"/>
      <point x="1300" y="2353"/>
      <point x="1153" y="2353" type="qcurve" smooth="yes"/>
      <point x="1006" y="2353"/>
      <point x="805" y="2555"/>
    </contour>
  </outline>
</glyph>
<glyph name="AE" format="1">
  <advance width="4022.337536"/>
  <unicode hex="00C6"/>
  <outline>
    <contour>
      <point x="2593" y="520" type="line"/>
      <point x="3901" y="520" type="line"/>
      <point x="3901" y="0" type="line"/>
      <point x="1946" y="0" type="line"/>
      <point x="1946" y="684" type="line"/>
      <point x="993" y="684" type="line"/>
      <point x="680" y="0" type="line"/>
      <point x="12" y="0" type="line"/>
      <point x="1468" y="3021" type="line"/>
      <point x="3850" y="3021" type="line"/>
      <point x="3850" y="2501" type="line"/>
      <point x="2593" y="2501" type="line"/>
      <point x="2593" y="1804" type="line"/>
      <point x="3527" y="1804" type="line"/>
      <point x="3527" y="1313" type="line"/>
      <point x="2593" y="1313" type="line"/>
    </contour>
    <contour>
      <point x="1841" y="2529" type="line"/>
      <point x="1178" y="1116" type="line"/>
      <point x="1946" y="1116" type="line"/>
      <point x="1946" y="2529" type="line"/>
    </contour>
  </outline>
</glyph>
<glyph name="ccedilla" format="1">
  <advance width="2059"/>
  <unicode hex="00E7"/>
  <outline>
    <contour>
      <point x="1104" y="369" type="qcurve" smooth="yes"/>
      <point x="1222" y="369"/>
      <point x="1377" y="548"/>
      <point x="1425" y="768" type="qcurve"/>
      <point x="1976" y="653" type="line"/>
      <point x="1897" y="322"/>
      <point x="1485" y="-22"/>
      <point x="1165" y="-37" type="qcurve"/>
      <point x="1053" y="-193" type="line"/>
      <point x="1091" y="-183"/>
      <point x="1198" y="-172"/>
      <point x="1257" y="-172" type="qcurve" smooth="yes"/>
      <point x="1415" y="-172"/>
      <point x="1614" y="-289"/>
      <point x="1614" y="-412" type="qcurve" smooth="yes"/>
      <point x="1614" y="-615"/>
      <point x="1101" y="-810"/>
      <point x="516" y="-801" type="qcurve"/>
      <point x="516" y="-672" type="line"/>
      <point x="926" y="-672"/>
      <point x="1237" y="-571"/>
      <point x="1237" y="-487" type="qcurve" smooth="yes"/>
      <point x="1237" y="-443"/>
      <point x="1166" y="-395"/>
      <point x="1090" y="-395" type="qcurve" smooth="yes"/>
      <point x="1035" y="-395"/>
      <point x="920" y="-419"/>
      <point x="860" y="-440" type="qcurve"/>
      <point x="725" y="-356" type="line"/>
      <point x="969" y="-37" type="line"/>
      <point x="581" y="0"/>
      <point x="125" y="588"/>
      <point x="125" y="1069" type="qcurve" smooth="yes"/>
      <point x="125" y="1161" type="line" smooth="yes"/>
      <point x="125" y="1672"/>
      <point x="653" y="2273"/>
      <point x="1104" y="2273" type="qcurve" smooth="yes"/>
      <point x="1466" y="2273"/>
      <point x="1898" y="1914"/>
      <point x="1968" y="1561" type="qcurve"/>
      <point x="1405" y="1448" type="line"/>
      <point x="1368" y="1660"/>
      <point x="1233" y="1862"/>
      <point x="1096" y="1862" type="qcurve" smooth="yes"/>
      <point x="926" y="1862"/>
      <point x="756" y="1516"/>
      <point x="756" y="1137" type="qcurve" smooth="yes"/>
      <point x="756" y="1096" type="line" smooth="yes"/>
      <point x="756" y="720"/>
      <point x="931" y="369"/>
    </contour>
  </outline>
</glyph>
<glyph name="eth" format="1">
  <advance width="2227"/>
  <unicode hex="00F0"/>
  <outline>
    <contour>
      <point x="1569" y="2810" type="line"/>
      <point x="1801" y="2529"/>
      <point x="2093" y="1781"/>
      <point x="2093" y="1284" type="qcurve" smooth="yes"/>
      <point x="2093" y="1100" type="line" smooth="yes"/>
      <point x="2093" y="566"/>
      <point x="1571" y="-41"/>
      <point x="1108" y="-41" type="qcurve" smooth="yes"/>
      <point x="648" y="-41"/>
      <point x="125" y="556"/>
      <point x="125" y="1069" type="qcurve" smooth="yes"/>
      <point x="125" y="1161" type="line" smooth="yes"/>
      <point x="125" y="1672"/>
      <point x="564" y="2245"/>
      <point x="940" y="2245" type="qcurve" smooth="yes"/>
      <point x="1146" y="2245"/>
      <point x="1416" y="2043"/>
      <point x="1522" y="1870" type="qcurve"/>
      <point x="1544" y="1870" type="line"/>
      <point x="1512" y="2078"/>
      <point x="1293" y="2476"/>
      <point x="1137" y="2650" type="qcurve"/>
      <point x="629" y="2433" type="line"/>
      <point x="629" y="2662" type="line"/>
      <point x="969" y="2814" type="line"/>
      <point x="900" y="2877"/>
      <point x="754" y="2991"/>
      <point x="676" y="3041" type="qcurve"/>
      <point x="1184" y="3197" type="line"/>
      <point x="1239" y="3146"/>
      <point x="1356" y="3037"/>
      <point x="1409" y="2978" type="qcurve"/>
      <point x="1933" y="3197" type="line"/>
      <point x="1933" y="2966" type="line"/>
    </contour>
    <contour>
      <point x="756" y="1069" type="line" smooth="yes"/>
      <point x="756" y="690"/>
      <point x="929" y="340"/>
      <point x="1108" y="340" type="qcurve" smooth="yes"/>
      <point x="1285" y="340"/>
      <point x="1464" y="689"/>
      <point x="1464" y="1065" type="qcurve" smooth="yes"/>
      <point x="1464" y="1165" type="line" smooth="yes"/>
      <point x="1464" y="1541"/>
      <point x="1285" y="1892"/>
      <point x="1108" y="1892" type="qcurve" smooth="yes"/>
      <point x="929" y="1892"/>
      <point x="756" y="1541"/>
      <point x="756" y="1165" type="qcurve" smooth="yes"/>
    </contour>
  </outline>
</glyph>
<glyph name="Lslash" format="1">
  <advance width="2378.170368"/>
  <unicode hex="0141"/>
  <outline>
    <contour>
      <point x="1061" y="557" type="line"/>
      <point x="2302" y="557" type="line"/>
      <point x="2302" y="0" type="line"/>
      <point x="408" y="0" type="line"/>
      <point x="408" y="1208" type="line"/>
      <point x="84" y="1069" type="line"/>
      <point x="84" y="1593" type="line"/>
      <point x="408" y="1737" type="line"/>
      <point x="408" y="3021" type="line"/>
      <point x="1061" y="3021" type="line"/>
      <point x="1061" y="1985" type="line"/>
      <point x="1606" y="2222" type="line"/>
      <point x="1606" y="1694" type="line"/>
      <point x="1061" y="1460" type="line"/>
    </contour>
  </outline>
</glyph>
<glyph name="oe" format="1">
  <advance width="3460"/>
  <unicode hex="0153"/>
  <outline>
    <contour>
      <point x="2562" y="395" type="qcurve" smooth="yes"/>
      <point x="2710" y="395"/>
      <point x="3011" y="492"/>
      <point x="3183" y="596" type="qcurve"/>
      <point x="3338" y="209" type="line"/>
      <point x="3120" y="84"/>
      <point x="2758" y="-33"/>
      <point x="2521" y="-33" type="qcurve" smooth="yes"/>
      <point x="2223" y="-33"/>
      <point x="1893" y="183"/>
      <point x="1800" y="389" type="qcurve"/>
      <point x="1765" y="389" type="line"/>
      <point x="1694" y="209"/>
      <point x="1355" y="-41"/>
      <point x="1081" y="-41" type="qcurve" smooth="yes"/>
      <point x="641" y="-41"/>
      <point x="125" y="556"/>
      <point x="125" y="1069" type="qcurve" smooth="yes"/>
      <point x="125" y="1161" type="line" smooth="yes"/>
      <point x="125" y="1672"/>
      <point x="640" y="2273"/>
      <point x="1065" y="2273" type="qcurve" smooth="yes"/>
      <point x="1325" y="2273"/>
      <point x="1684" y="2044"/>
      <point x="1765" y="1841" type="qcurve"/>
      <point x="1800" y="1841" type="line"/>
      <point x="1884" y="2044"/>
      <point x="2214" y="2273"/>
      <point x="2449" y="2273" type="qcurve" smooth="yes"/>
      <point x="2847" y="2273"/>
      <point x="3322" y="1677"/>
      <point x="3322" y="1157" type="qcurve" smooth="yes"/>
      <point x="3322" y="969" type="line"/>
      <point x="2068" y="969" type="line"/>
      <point x="2084" y="652"/>
      <point x="2350" y="395"/>
    </contour>
    <contour>
      <point x="756" y="1069" type="line" smooth="yes"/>
      <point x="756" y="690"/>
      <point x="929" y="340"/>
      <point x="1108" y="340" type="qcurve" smooth="yes"/>
      <point x="1285" y="340"/>
      <point x="1464" y="689"/>
      <point x="1464" y="1065" type="qcurve" smooth="yes"/>
      <point x="1464" y="1165" type="line" smooth="yes"/>
      <point x="1464" y="1541"/>
      <point x="1285" y="1892"/>
      <point x="1108" y="1892" type="qcurve" smooth="yes"/>
      <point x="929" y="1892"/>
      <point x="756" y="1541"/>
      <point x="756" y="1165" type="qcurve" smooth="yes"/>
    </contour>
    <contour>
      <point x="2408" y="1909" type="qcurve" smooth="yes"/>
      <point x="2245" y="1909"/>
      <point x="2075" y="1581"/>
      <point x="2068" y="1225" type="qcurve"/>
      <point x="2734" y="1225" type="line"/>
      <point x="2722" y="1598"/>
      <point x="2567" y="1909"/>
    </contour>
  </outline>
</glyph>
<glyph name="circumflex" format="1">
  <advance width="2097.152"/>
  <unicode hex="02C6"/>
  <outline>
    <contour>
      <point x="813" y="3170" type="line"/>
      <point x="1284" y="3170" type="line"/>
      <point x="1757" y="2474" type="line"/>
      <point x="1452" y="2474" type="line"/>
      <point x="1044" y="2826" type="line"/>
      <point x="637" y="2474" type="line"/>
      <point x="340" y="2474" type="line"/>
    </contour>
  </outline>
</glyph>
<glyph name="ring" format="1">
  <advance width="2097"/>
  <unicode hex="02DA"/>
  <outline>
    <contour>
      <point x="524" y="2877" type="qcurve" smooth="yes"/>
      <point x="524" y="3062"/>
      <point x="804" y="3297"/>
      <point x="1049" y="3297" type="qcurve" smooth="yes"/>
      <point x="1293" y="3297"/>
      <point x="1573" y="3062"/>
      <point x="1573" y="2877" type="qcurve" smooth="yes"/>
      <point x="1573" y="2686"/>
      <point x="1293" y="2454"/>
      <point x="1049" y="2454" type="qcurve" smooth="yes"/>
      <point x="804" y="2454"/>
      <point x="524" y="2686"/>
    </contour>
    <contour>
      <point x="836" y="2877" type="qcurve" smooth="yes"/>
      <point x="836" y="2780"/>
      <point x="955" y="2650"/>
      <point x="1049" y="2650" type="qcurve" smooth="yes"/>
      <point x="1142" y="2650"/>
      <point x="1262" y="2780"/>
      <point x="1262" y="2877" type="qcurve" smooth="yes"/>
      <point x="1262" y="2974"/>
      <point x="1142" y="3099"/>
      <point x="1049" y="3099" type="qcurve" smooth="yes"/>
      <point x="955" y="3099"/>
      <point x="836" y="2974"/>
    </contour>
  </outline>
</glyph>
<glyph name="emdash" format="1">
  <advance width="4194.304"/>
  <unicode hex="2014"/>
  <outline>
    <contour>
      <point x="152" y="1468" type="line"/>
      <point x="4043" y="1468" type="line"/>
      <point x="4043" y="948" type="line"/>
      <point x="152" y="948" type="line"/>
    </contour>
  </outline>
</glyph>
<glyph name="quoteright" format="1">
  <advance width="989.855744"/>
  <unicode hex="2019"/>
  <unicode hex="02BC"/>
  <outline>
    <contour>
      <point x="125" y="1845" type="line"/>
      <point x="244" y="3021" type="line"/>
      <point x="920" y="3021" type="line"/>
      <point x="473" y="1845" type="line"/>
    </contour>
  </outline>
</glyph>
<glyph name="ellipsis" format="1">
  <advance width="3003"/>
  <unicode hex="2026"/>
  <outline>
    <contour>
      <point x="139" y="315" type="qcurve" smooth="yes"/>
      <point x="139" y="462"/>
      <point x="335" y="659"/>
      <point x="483" y="659" type="qcurve" smooth="yes"/>
      <point x="630" y="659"/>
      <point x="831" y="462"/>
      <point x="831" y="315" type="qcurve" smooth="yes"/>
      <point x="831" y="167"/>
      <point x="630" y="-29"/>
      <point x="483" y="-29" type="qcurve" smooth="yes"/>
      <point x="335" y="-29"/>
      <point x="139" y="167"/>
    </contour>
    <contour>
      <point x="1157" y="315" type="qcurve" smooth="yes"/>
      <point x="1157" y="462"/>
      <point x="1354" y="659"/>
      <point x="1501" y="659" type="qcurve" smooth="yes"/>
      <point x="1648" y="659"/>
      <point x="1845" y="462"/>
      <point x="1845" y="315" type="qcurve" smooth="yes"/>
      <point x="1845" y="167"/>
      <point x="1648" y="-29"/>
      <point x="1501" y="-29" type="qcurve" smooth="yes"/>
      <point x="1354" y="-29"/>
      <point x="1157" y="167"/>
    </contour>
    <contour>
      <point x="2173" y="315" type="qcurve" smooth="yes"/>
      <point x="2173" y="462"/>
      <point x="2374" y="659"/>
      <point x="2521" y="659" type="qcurve" smooth="yes"/>
      <point x="2668" y="659"/>
      <point x="2865" y="462"/>
      <point x="2865" y="315" type="qcurve" smooth="yes"/>
      <point x="2865" y="167"/>
      <point x="2668" y="-29"/>
      <point x="2521" y="-29" type="qcurve" smooth="yes"/>
      <point x="2374" y="-29"/>
      <point x="2173" y="167"/>
    </contour>
  </outline>
</glyph>
<glyph name="Euro" format="1">
  <advance width="2554"/>
  <unicode hex="20AC"/>
  <outline>
    <contour>
      <point x="1401" y="453" type="qcurve" smooth="yes"/>
      <point x="1592" y="453"/>
      <point x="1858" y="674"/>
      <point x="1993" y="905" type="qcurve"/>
      <point x="2445" y="604" type="line"/>
      <point x="2248" y="291"/>
      <point x="1743" y="-51"/>
      <point x="1329" y="-51" type="qcurve" smooth="yes"/>
      <point x="810" y="-51"/>
      <point x="164" y="704"/>
      <point x="164" y="1409" type="qcurve" smooth="yes"/>
      <point x="164" y="1614" type="line" smooth="yes"/>
      <point x="164" y="2315"/>
      <point x="811" y="3070"/>
      <point x="1346" y="3070" type="qcurve" smooth="yes"/>
      <point x="1769" y="3070"/>
      <point x="2255" y="2764"/>
      <point x="2437" y="2441" type="qcurve"/>
      <point x="1933" y="2114" type="line"/>
      <point x="1808" y="2346"/>
      <point x="1544" y="2566"/>
      <point x="1364" y="2566" type="qcurve" smooth="yes"/>
      <point x="1141" y="2566"/>
      <point x="887" y="2229"/>
      <point x="856" y="1937" type="qcurve"/>
      <point x="1673" y="1937" type="line"/>
      <point x="1673" y="1653" type="line"/>
      <point x="844" y="1653" type="line"/>
      <point x="844" y="1634"/>
      <point x="840" y="1600"/>
      <point x="840" y="1585" type="qcurve" smooth="yes"/>
      <point x="840" y="1405" type="line" smooth="yes"/>
      <point x="840" y="1387"/>
      <point x="844" y="1343"/>
      <point x="844" y="1325" type="qcurve"/>
      <point x="1673" y="1325" type="line"/>
      <point x="1673" y="1040" type="line"/>
      <point x="860" y="1040" type="line"/>
      <point x="897" y="768"/>
      <point x="1169" y="453"/>
    </contour>
  </outline>
</glyph>
<glyph name="trademark" format="1">
  <advance width="3271.55712"/>
  <unicode hex="2122"/>
  <outline>
    <contour>
      <point x="2562" y="3021" type="line"/>
      <point x="3070" y="3021" type="line"/>
      <point x="3070" y="1597" type="line"/>
      <point x="2742" y="1597" type="line"/>
      <point x="2742" y="2658" type="line"/>
      <point x="2734" y="2658" type="line"/>
      <point x="2425" y="1597" type="line"/>
      <point x="2101" y="1597" type="line"/>
      <point x="1796" y="2658" type="line"/>
      <point x="1786" y="2658" type="line"/>
      <point x="1786" y="1597" type="line"/>
      <point x="1473" y="1597" type="line"/>
      <point x="1473" y="3021" type="line"/>
      <point x="1980" y="3021" type="line"/>
      <point x="2261" y="2034" type="line"/>
      <point x="2273" y="2034" type="line"/>
    </contour>
    <contour>
      <point x="125" y="3021" type="line"/>
      <point x="1257" y="3021" type="line"/>
      <point x="1257" y="2730" type="line"/>
      <point x="868" y="2730" type="line"/>
      <point x="868" y="1597" type="line"/>
      <point x="516" y="1597" type="line"/>
      <point x="516" y="2730" type="line"/>
      <point x="125" y="2730" type="line"/>
    </contour>
  </outline>
</glyph>
<glyph name="radical" format="1">
  <advance width="2529.165312"/>
  <unicode hex="221A"/>
  <outline>
    <contour>
      <point x="1096" y="504" type="line"/>
      <point x="1761" y="3021" type="line"/>
      <point x="2458" y="3021" type="line"/>
      <point x="1430" y="-16" type="line"/>
      <point x="737" y="-16" type="line"/>
      <point x="88" y="1425" type="line"/>
      <point x="741" y="1425" type="line"/>
    </contour>
  </outline>
</glyph>
<glyph name="fi" format="1">
  <advance width="2726"/>
  <unicode hex="FB01"/>
  <outline>
    <contour>
      <point x="1200" y="3183" type="qcurve" smooth="yes"/>
      <point x="1347" y="3183"/>
      <point x="1553" y="3158"/>
      <point x="1645" y="3133" type="qcurve"/>
      <point x="1645" y="2714" type="line"/>
      <point x="1585" y="2735"/>
      <point x="1449" y="2757"/>
      <point x="1356" y="2757" type="qcurve" smooth="yes"/>
      <point x="1214" y="2757"/>
      <point x="1073" y="2621"/>
      <point x="1073" y="2470" type="qcurve" smooth="yes"/>
      <point x="1073" y="2218" type="line"/>
      <point x="1602" y="2218" type="line"/>
      <point x="1602" y="1796" type="line"/>
      <point x="1073" y="1796" type="line"/>
      <point x="1073" y="0" type="line"/>
      <point x="449" y="0" type="line"/>
      <point x="449" y="1796" type="line"/>
      <point x="51" y="1796" type="line"/>
      <point x="51" y="2218" type="line"/>
      <point x="449" y="2218" type="line"/>
      <point x="449" y="2454" type="line" smooth="yes"/>
      <point x="449" y="2814"/>
      <point x="839" y="3183"/>
    </contour>
    <contour>
      <point x="1862" y="2232" type="line"/>
      <point x="2492" y="2232" type="line"/>
      <point x="2492" y="0" type="line"/>
      <point x="1862" y="0" type="line"/>
    </contour>
    <contour>
      <point x="1837" y="3049" type="line"/>
      <point x="2517" y="3049" type="line"/>
      <point x="2517" y="2558" type="line"/>
      <point x="1837" y="2558" type="line"/>
    </contour>
  </outline>
</glyph>
<glyph name="bullet" format="1">
  <advance width="1795"/>
  <outline>
    <contour>
      <point x="164" y="1565" type="qcurve" smooth="yes"/>
      <point x="164" y="1872"/>
      <point x="591" y="2294"/>
      <point x="897" y="2294" type="qcurve" smooth="yes"/>
      <point x="1204" y="2294"/>
      <point x="1628" y="1872"/>
      <point x="1628" y="1565" type="qcurve" smooth="yes"/>
      <point x="1628" y="1257"/>
      <point x="1204" y="836"/>
      <point x="897" y="836" type="qcurve" smooth="yes"/>
      <point x="591" y="836"/>
      <point x="164" y="1257"/>
    </contour>
  </outline>
</glyph>
<glyph name="macron" format="1">
  <advance width="2097.152"/>
  <outline>
    <contour>
      <point x="424" y="2986" type="line"/>
      <point x="1673" y="2986" type="line"/>
      <point x="1673" y="2613" type="line"/>
      <point x="424" y="2613" type="line"/>
    </contour>
  </outline>
</glyph>
